<?xml version="1.0" standalone="no"?><svg xmlns="http://www.w3.org/2000/svg" viewBox="0 0 1440 320"><path fill="#0099ff" fill-opacity="1" d="M0,128L34.3,128C68.6,128,137,128,206,138.7C274.3,149,343,171,411,160C480,149,549,107,617,96C685.7,85,754,107,823,128C891.4,149,960,171,1029,192C1097.1,213,1166,235,1234,213.3C1302.9,192,1371,128,1406,96L1440,64L1440,0L1405.7,0C1371.4,0,1303,0,1234,0C1165.7,0,1097,0,1029,0C960,0,891,0,823,0C754.3,0,686,0,617,0C548.6,0,480,0,411,0C342.9,0,274,0,206,0C137.1,0,69,0,34,0L0,0Z"></path></svg>